{"glyphs":{":":{"x_min":0,"x_max":600,"ha":600,"o":"m 292 423 l 309 423 q 336 423 356 403 q 375 384 375 357 q 375 328 356 309 q 336 290 309 290 l 292 290 q 264 290 245 310 q 225 329 225 356 q 225 385 245 404 q 265 423 292 423 z m 292 118 l 309 118 q 336 118 356 98 q 375 79 375 52 q 375 23 356 4 q 336 -15 309 -15 l 292 -15 q 264 -15 245 5 q 225 24 225 51 q 225 80 245 99 q 265 118 292 118 z"},"$":{"x_min":0,"x_max":600,"ha":600,"o":"m 279 585 l 279 637 q 279 652 284 658 q 290 665 299 665 q 309 665 314 658 q 320 652 320 637 l 320 585 q 353 582 375 574 q 396 567 425 547 q 426 560 432 565 q 438 571 446 571 q 455 571 461 565 q 467 559 467 544 l 467 483 q 467 468 461 462 q 455 456 446 456 q 438 456 433 461 q 427 466 425 478 q 422 501 395 520 q 355 546 301 546 q 246 546 210 514 q 174 481 174 441 q 174 400 206 379 q 229 362 306 348 q 383 333 411 321 q 450 304 469 274 q 488 245 488 204 q 488 148 445 106 q 401 63 320 55 l 320 -65 q 320 -81 314 -87 q 309 -93 299 -93 q 290 -93 284 -87 q 279 -81 279 -65 l 279 55 q 204 60 152 104 q 152 83 151 78 q 149 73 144 70 q 138 66 132 66 q 123 66 117 72 q 111 79 111 93 l 111 173 q 111 188 117 195 q 123 201 132 201 q 141 201 147 195 q 151 190 152 175 q 155 149 194 122 q 233 95 299 95 q 368 95 408 128 q 447 161 447 204 q 447 233 433 253 q 418 274 387 287 q 366 295 301 308 q 206 326 169 355 q 132 385 132 441 q 132 494 172 536 q 212 577 279 585 z"},"?":{"x_min":0,"x_max":600,"ha":600,"o":"m 322 251 l 322 209 q 322 195 316 188 q 311 182 302 182 q 292 182 287 188 q 281 195 281 209 l 281 278 q 388 318 427 357 q 449 379 449 413 q 449 467 409 506 q 369 545 306 545 q 273 545 245 538 q 216 530 175 510 l 175 468 q 175 454 170 447 q 164 441 155 441 q 146 441 140 447 q 134 454 134 468 l 134 537 q 210 571 233 577 q 271 586 309 586 q 391 586 440 537 q 490 488 490 414 q 490 368 460 332 q 431 297 322 251 z m 280 87 l 321 87 q 343 87 358 72 q 373 57 373 36 q 373 15 357 0 q 342 -15 321 -15 l 280 -15 q 259 -15 244 0 q 229 15 229 36 q 229 58 245 72 q 260 87 280 87 z"},"<":{"x_min":0,"x_max":600,"ha":600,"o":"m 48 285 l 491 532 q 502 538 507 538 q 516 538 522 531 q 528 525 528 517 q 528 505 511 496 l 131 285 l 511 74 q 527 64 527 52 q 527 44 521 38 q 515 32 507 32 q 501 32 491 38 z"},"'":{"x_min":0,"x_max":600,"ha":600,"o":"m 235 613 l 365 613 l 331 356 q 328 336 320 328 q 312 320 300 320 q 288 320 280 328 q 272 336 269 356 z"},"=":{"x_min":0,"x_max":600,"ha":600,"o":"m 524 339 l 77 339 q 62 339 56 345 q 49 351 49 360 q 49 369 56 375 q 62 381 77 381 l 524 381 q 539 381 545 375 q 551 369 551 360 q 551 351 545 345 q 539 339 524 339 z m 524 192 l 77 192 q 62 192 56 198 q 49 204 49 213 q 49 222 56 228 q 62 233 77 233 l 524 233 q 539 233 545 228 q 551 222 551 213 q 551 204 545 198 q 539 192 524 192 z"},"a":{"x_min":0,"x_max":600,"ha":600,"o":"m 418 0 l 418 59 q 329 -16 227 -16 q 153 -16 112 21 q 70 59 70 113 q 70 172 125 217 q 180 261 285 261 q 313 261 346 258 q 379 254 418 246 l 418 312 q 418 346 387 371 q 355 396 293 396 q 245 396 159 368 q 143 363 139 363 q 131 363 125 369 q 120 375 120 384 q 120 392 125 397 q 131 404 180 417 q 256 438 295 438 q 373 438 416 399 q 459 361 459 312 l 459 41 l 514 41 q 529 41 536 35 q 542 30 542 21 q 542 12 536 6 q 529 0 514 0 z m 418 204 q 389 212 357 216 q 325 220 289 220 q 200 220 149 182 q 111 153 111 113 q 111 76 140 50 q 169 25 225 25 q 278 25 324 46 q 370 67 418 114 z"},"L":{"x_min":0,"x_max":600,"ha":600,"o":"m 229 530 l 229 41 l 501 41 l 501 204 q 501 219 507 225 q 513 231 522 231 q 531 231 537 225 q 543 219 543 204 l 543 0 l 90 0 q 75 0 69 6 q 62 12 62 21 q 62 30 69 35 q 75 41 90 41 l 188 41 l 188 530 l 90 530 q 75 530 69 536 q 62 542 62 551 q 62 560 69 566 q 75 571 90 571 l 327 571 q 341 571 348 566 q 354 560 354 551 q 354 542 348 536 q 341 530 327 530 z"},"3":{"x_min":0,"x_max":600,"ha":600,"o":"m 384 333 q 441 308 471 264 q 500 220 500 172 q 500 98 441 42 q 381 -15 291 -15 q 238 -15 182 8 q 125 30 103 54 q 95 62 95 70 q 95 78 101 84 q 106 90 114 90 q 122 90 132 83 q 208 26 292 26 q 363 26 411 71 q 459 116 459 170 q 459 207 436 242 q 412 277 368 298 q 323 318 278 318 q 263 318 257 323 q 250 329 250 338 q 250 347 257 353 q 263 359 275 359 l 310 358 q 365 358 401 392 q 437 426 437 470 q 437 516 399 551 q 362 586 301 586 q 259 586 223 572 q 188 557 166 532 q 158 522 154 520 q 150 518 145 518 q 136 518 130 523 q 125 529 125 537 q 125 556 167 586 q 226 627 301 627 q 379 627 429 581 q 479 534 479 470 q 479 429 455 392 q 431 355 384 333 z"},";":{"x_min":0,"x_max":600,"ha":600,"o":"m 291 423 l 309 423 q 336 423 356 403 q 375 384 375 357 q 375 328 355 309 q 336 290 309 290 l 291 290 q 264 290 244 310 q 225 329 225 356 q 225 385 245 404 q 265 423 291 423 z m 220 147 l 349 147 l 210 -79 q 200 -96 194 -100 q 188 -104 180 -104 q 168 -104 160 -97 q 152 -90 152 -80 q 152 -74 155 -64 z"},"J":{"x_min":0,"x_max":600,"ha":600,"o":"m 460 530 l 460 168 q 460 93 405 39 q 349 -16 272 -16 q 226 -16 181 5 q 136 26 83 75 l 83 226 q 83 241 89 247 q 95 253 104 253 q 113 253 119 247 q 125 241 125 226 l 125 94 q 162 60 199 42 q 236 25 272 25 q 312 25 348 44 q 375 59 397 94 q 419 128 419 168 l 419 530 l 258 530 q 243 530 237 536 q 230 542 230 551 q 230 560 237 566 q 243 571 258 571 l 558 571 q 573 571 579 566 q 585 560 585 551 q 585 542 579 536 q 573 530 558 530 z"},"V":{"x_min":0,"x_max":600,"ha":600,"o":"m 331 0 l 273 0 l 67 530 l 35 530 q 24 530 19 532 q 14 535 11 540 q 8 545 8 551 q 8 557 11 562 q 14 567 19 569 q 24 571 35 571 l 188 571 q 200 571 204 569 q 209 567 212 562 q 215 557 215 551 q 215 545 212 540 q 208 535 204 532 q 199 530 188 530 l 109 530 l 300 41 l 303 41 l 491 530 l 413 530 q 401 530 396 532 q 391 535 388 540 q 385 545 385 551 q 385 557 388 562 q 392 567 396 569 q 401 571 413 571 l 565 571 q 577 571 582 569 q 586 567 590 562 q 593 557 593 551 q 593 545 589 540 q 586 535 581 532 q 577 530 565 530 l 534 530 z"},"\"":{"x_min":0,"x_max":600,"ha":600,"o":"m 130 603 l 260 603 l 226 365 q 223 347 215 339 q 207 332 195 332 q 183 332 175 339 q 167 347 164 365 z m 339 603 l 469 603 l 435 365 q 432 347 424 339 q 417 332 405 332 q 392 332 384 339 q 376 347 374 365 z"},"7":{"x_min":0,"x_max":600,"ha":600,"o":"m 438 553 l 438 571 l 144 571 l 144 535 q 144 521 138 514 q 133 508 124 508 q 115 508 109 514 q 103 521 103 535 l 103 613 l 479 613 l 479 547 l 314 20 q 311 7 305 3 q 300 -1 293 -1 q 284 -1 278 5 q 272 11 272 19 q 272 23 275 32 z"},"S":{"x_min":0,"x_max":600,"ha":600,"o":"m 447 530 l 447 544 q 447 559 452 565 q 458 571 467 571 q 477 571 482 565 q 488 559 488 544 l 488 439 q 488 425 482 418 q 477 412 467 412 q 458 412 453 418 q 447 424 447 437 q 444 478 405 511 q 365 543 300 543 q 232 543 192 509 q 152 474 152 426 q 152 402 164 382 q 175 362 193 349 q 212 337 235 329 q 259 322 309 313 q 392 300 424 286 q 466 267 488 233 q 510 199 510 153 q 510 83 454 33 q 397 -16 302 -16 q 195 -16 131 51 l 131 27 q 131 13 126 6 q 120 0 111 0 q 102 0 96 6 q 90 13 90 27 l 90 141 q 90 156 96 162 q 102 168 111 168 q 120 168 125 163 q 131 157 131 144 q 134 99 179 62 q 225 25 302 25 q 379 25 424 63 q 469 102 469 155 q 469 187 452 212 q 435 237 401 252 q 377 262 303 275 q 201 292 156 327 q 111 362 111 427 q 111 492 163 538 q 214 584 299 584 q 385 584 447 530 z"},"}":{"x_min":0,"x_max":600,"ha":600,"o":"m 324 243 q 299 262 291 278 q 280 300 280 330 l 280 506 q 280 533 264 551 q 248 569 224 571 q 208 573 204 577 q 197 583 197 592 q 197 601 203 607 q 209 613 222 613 q 261 613 286 588 q 321 555 321 506 l 321 330 q 321 303 337 285 q 354 267 378 265 q 392 263 397 258 q 403 252 403 243 q 403 233 397 228 q 392 223 378 221 q 353 219 337 201 q 321 183 321 156 l 321 -20 q 321 -66 292 -96 q 262 -127 222 -127 q 209 -127 203 -121 q 197 -115 197 -106 q 197 -97 203 -91 q 208 -87 224 -85 q 248 -83 264 -65 q 280 -46 280 -20 l 280 156 q 280 187 290 206 q 299 225 324 243 z"},"Z":{"x_min":0,"x_max":600,"ha":600,"o":"m 499 0 l 104 0 l 104 60 l 437 527 l 437 530 l 164 530 l 164 410 q 164 395 158 388 q 152 382 143 382 q 134 382 128 388 q 123 395 123 410 l 123 571 l 477 571 l 477 513 l 144 45 l 144 41 l 458 41 l 458 184 q 458 199 464 206 q 469 212 479 212 q 488 212 493 206 q 499 199 499 184 z"},"x":{"x_min":0,"x_max":600,"ha":600,"o":"m 328 221 l 516 41 q 535 41 540 39 q 544 38 548 32 q 552 27 552 21 q 552 12 545 6 q 539 0 524 0 l 392 0 q 377 0 371 6 q 364 12 364 21 q 364 30 371 35 q 377 41 392 41 l 460 41 l 300 194 l 142 41 l 210 41 q 225 41 231 35 q 237 30 237 21 q 237 12 231 6 q 225 0 210 0 l 77 0 q 62 0 56 6 q 49 12 49 21 q 49 27 53 32 q 57 38 61 39 q 66 41 84 41 l 272 221 l 105 381 q 88 381 83 383 q 79 385 75 391 q 71 396 71 402 q 71 411 78 417 q 84 423 99 423 l 211 423 q 226 423 232 417 q 238 411 238 402 q 238 393 232 387 q 226 381 211 381 l 162 381 l 300 248 l 439 381 l 391 381 q 376 381 369 387 q 363 393 363 402 q 363 411 369 417 q 375 423 391 423 l 502 423 q 517 423 523 417 q 530 411 530 402 q 530 396 526 391 q 522 385 518 383 q 513 381 496 381 z"},")":{"x_min":0,"x_max":600,"ha":600,"o":"m 312 243 q 312 187 297 124 q 283 61 241 -22 q 200 -104 181 -121 q 175 -127 168 -127 q 159 -127 153 -121 q 147 -115 147 -106 q 147 -102 150 -96 q 204 2 227 83 q 250 163 250 243 q 250 323 227 403 q 204 483 150 582 q 147 588 147 593 q 147 601 153 607 q 159 613 168 613 q 175 613 181 607 q 199 591 240 510 q 281 430 296 368 q 312 306 312 243 z"},"&":{"x_min":0,"x_max":600,"ha":600,"o":"m 416 0 l 385 48 q 341 -16 271 -16 q 213 -16 168 30 q 124 77 124 144 q 124 195 154 235 q 184 275 237 291 q 201 349 194 367 q 187 386 187 405 q 187 454 223 490 q 260 526 311 526 q 328 526 344 521 q 361 517 377 506 q 398 517 403 517 q 412 517 418 511 q 424 505 424 496 q 424 490 420 485 q 417 480 407 475 l 375 458 q 360 472 344 478 q 328 485 312 485 q 278 485 253 460 q 228 435 228 404 q 228 373 271 303 l 385 123 q 415 179 432 252 l 472 252 q 486 252 493 247 q 499 241 499 232 q 499 226 495 220 q 492 215 487 213 q 482 211 463 211 q 439 128 409 83 l 437 41 l 472 41 q 486 41 493 35 q 499 30 499 21 q 499 12 493 6 q 486 0 472 0 z m 254 255 q 213 245 189 215 q 165 185 165 144 q 165 94 198 60 q 230 25 271 25 q 325 25 361 86 z"},"_":{"x_min":0,"x_max":600,"ha":600,"o":"m 573 -274 l 27 -274 q 13 -274 6 -268 q 0 -263 0 -253 q 0 -244 6 -239 q 13 -233 27 -233 l 573 -233 q 588 -233 594 -239 q 600 -244 600 -253 q 600 -263 594 -268 q 588 -274 573 -274 z"},"v":{"x_min":0,"x_max":600,"ha":600,"o":"m 336 0 l 267 0 l 98 381 l 56 381 q 42 381 35 387 q 29 393 29 402 q 29 411 35 417 q 42 423 56 423 l 210 423 q 225 423 231 417 q 237 411 237 402 q 237 393 231 387 q 225 381 210 381 l 142 381 l 292 41 l 311 41 l 458 381 l 390 381 q 375 381 369 387 q 362 393 362 402 q 362 411 369 417 q 375 423 390 423 l 544 423 q 559 423 565 417 q 571 411 571 402 q 571 393 565 387 q 559 381 544 381 l 502 381 z"},"O":{"x_min":0,"x_max":600,"ha":600,"o":"m 551 284 q 551 202 518 132 q 484 62 426 23 q 368 -16 301 -16 q 202 -16 126 68 q 51 152 51 284 q 51 417 126 500 q 202 584 301 584 q 368 584 426 545 q 484 506 517 437 q 551 367 551 284 z m 509 284 q 509 384 451 464 q 393 543 301 543 q 214 543 153 468 q 92 392 92 284 q 92 170 156 97 q 220 25 301 25 q 393 25 451 104 q 509 184 509 284 z"},"(":{"x_min":0,"x_max":600,"ha":600,"o":"m 295 243 q 295 299 310 362 q 325 425 366 508 q 408 590 427 607 q 433 613 439 613 q 448 613 454 607 q 460 601 460 593 q 460 588 457 582 q 403 483 380 403 q 357 323 357 243 q 357 163 380 83 q 403 2 457 -96 q 460 -102 460 -106 q 460 -115 454 -121 q 448 -127 439 -127 q 433 -127 427 -122 q 409 -105 368 -24 q 327 56 311 118 q 295 180 295 243 z"},"C":{"x_min":0,"x_max":600,"ha":600,"o":"m 480 515 l 480 544 q 480 559 486 565 q 492 571 501 571 q 510 571 516 565 q 521 559 521 544 l 521 430 q 521 415 516 409 q 510 402 501 402 q 493 402 487 408 q 481 414 480 427 q 478 468 436 500 q 379 543 307 543 q 260 543 218 522 q 187 507 168 485 q 136 447 117 401 q 103 367 103 324 l 103 252 q 103 160 169 93 q 236 25 324 25 q 376 25 418 48 q 460 71 499 117 q 507 127 518 127 q 526 127 532 122 q 537 117 537 108 q 537 97 516 74 q 476 29 426 7 q 376 -16 325 -16 q 280 -16 234 1 q 199 14 176 32 q 153 49 120 91 q 86 133 74 168 q 62 204 62 246 l 62 330 q 62 390 94 453 q 127 517 183 551 q 240 584 306 584 q 407 584 480 515 z"},"W":{"x_min":0,"x_max":600,"ha":600,"o":"m 480 0 l 416 0 l 299 406 l 186 0 l 121 0 l 61 530 l 45 530 q 31 530 24 536 q 18 542 18 551 q 18 560 24 566 q 31 571 45 571 l 198 571 q 213 571 219 566 q 226 560 226 551 q 226 542 219 536 q 213 530 198 530 l 102 530 l 156 47 l 267 445 l 330 445 l 444 47 l 497 530 l 401 530 q 386 530 380 536 q 374 542 374 551 q 374 560 380 566 q 386 571 401 571 l 552 571 q 567 571 574 566 q 580 560 580 551 q 580 542 574 536 q 567 530 552 530 l 537 530 z"},"A":{"x_min":0,"x_max":600,"ha":600,"o":"m 435 191 l 166 191 l 110 41 l 189 41 q 204 41 210 35 q 216 30 216 21 q 216 12 210 6 q 204 0 189 0 l 36 0 q 21 0 15 6 q 8 12 8 21 q 8 30 15 35 q 21 41 36 41 l 67 41 l 249 530 l 127 530 q 113 530 106 536 q 100 542 100 551 q 100 560 106 566 q 113 571 127 571 l 334 571 l 534 41 l 566 41 q 581 41 587 35 q 593 30 593 21 q 593 12 587 6 q 581 0 566 0 l 413 0 q 398 0 392 6 q 385 12 385 21 q 385 30 392 35 q 398 41 413 41 l 491 41 z m 419 232 l 306 530 l 291 530 l 181 232 z"},"f":{"x_min":0,"x_max":600,"ha":600,"o":"m 273 381 l 273 41 l 453 41 q 468 41 474 35 q 480 30 480 21 q 480 12 474 6 q 468 0 453 0 l 132 0 q 118 0 111 6 q 105 12 105 21 q 105 30 111 35 q 118 41 132 41 l 231 41 l 231 381 l 143 381 q 128 381 122 387 q 115 393 115 402 q 115 411 122 417 q 128 423 143 423 l 231 423 l 231 485 q 231 537 273 575 q 315 613 385 613 q 443 613 509 602 q 534 598 539 593 q 544 587 544 579 q 544 570 538 564 q 532 559 522 559 q 519 559 509 560 q 436 571 385 571 q 331 571 302 545 q 273 519 273 485 l 273 423 l 465 423 q 479 423 486 417 q 492 411 492 402 q 492 393 486 387 q 479 381 465 381 z"},"Q":{"x_min":0,"x_max":600,"ha":600,"o":"m 306 -16 l 251 -57 q 292 -49 318 -49 q 361 -49 402 -64 q 432 -76 448 -76 q 476 -76 511 -53 q 524 -44 530 -44 q 539 -44 545 -50 q 550 -55 550 -64 q 550 -72 545 -77 q 535 -89 499 -104 q 472 -117 445 -117 q 425 -117 389 -104 q 353 -90 319 -90 q 295 -90 260 -96 q 210 -104 181 -113 q 171 -115 167 -115 q 158 -115 152 -109 q 146 -104 146 -94 q 146 -84 158 -76 l 249 -10 q 167 10 109 90 q 51 171 51 284 q 51 417 126 500 q 202 584 301 584 q 400 584 475 500 q 551 417 551 284 q 551 154 477 70 q 402 -15 306 -16 z m 509 284 q 509 384 451 464 q 393 543 301 543 q 214 543 153 468 q 92 392 92 284 q 92 170 156 97 q 220 25 301 25 q 393 25 451 104 q 509 184 509 284 z"},"w":{"x_min":0,"x_max":600,"ha":600,"o":"m 441 0 l 391 0 l 300 263 l 210 0 l 160 0 l 75 381 l 55 381 q 40 381 34 387 q 27 393 27 402 q 27 411 34 417 q 40 423 55 423 l 167 423 q 182 423 188 417 q 195 411 195 402 q 195 393 188 387 q 182 381 167 381 l 115 381 l 188 56 l 275 316 l 324 316 l 414 56 l 484 381 l 432 381 q 417 381 411 387 q 404 393 404 402 q 404 411 411 417 q 417 423 432 423 l 544 423 q 560 423 566 417 q 572 411 572 402 q 572 393 566 387 q 560 381 544 381 l 525 381 z"},"-":{"x_min":0,"x_max":600,"ha":600,"o":"m 509 312 l 509 253 l 91 253 l 91 312 z"},"E":{"x_min":0,"x_max":600,"ha":600,"o":"m 167 276 l 167 41 l 482 41 l 482 162 q 482 177 488 183 q 493 189 502 189 q 512 189 517 183 q 523 177 523 162 l 523 0 l 70 0 q 56 0 49 6 q 43 12 43 21 q 43 30 49 35 q 56 41 70 41 l 125 41 l 125 530 l 70 530 q 56 530 49 536 q 43 542 43 551 q 43 560 49 566 q 56 571 70 571 l 501 571 l 501 430 q 501 416 496 409 q 490 403 481 403 q 472 403 466 409 q 460 416 460 430 l 460 530 l 167 530 l 167 317 l 313 317 l 313 363 q 313 378 319 384 q 325 391 334 391 q 343 391 349 384 q 355 378 355 363 l 355 229 q 355 215 349 208 q 343 202 334 202 q 325 202 319 208 q 313 215 313 229 l 313 276 z"},"s":{"x_min":0,"x_max":600,"ha":600,"o":"m 436 396 q 436 410 441 417 q 447 423 456 423 q 465 423 471 417 q 477 410 477 395 l 477 325 q 477 310 471 304 q 465 297 456 297 q 448 297 442 303 q 437 308 436 320 q 433 350 405 369 q 365 396 299 396 q 230 396 192 368 q 164 347 164 321 q 164 292 198 272 q 221 259 287 251 q 372 242 405 230 q 453 213 476 183 q 499 153 499 118 q 499 65 449 25 q 398 -16 301 -16 q 204 -16 142 33 q 142 17 140 12 q 138 7 133 3 q 128 0 122 0 q 113 0 107 6 q 101 13 101 27 l 101 112 q 101 126 107 133 q 112 139 122 139 q 130 139 136 133 q 143 127 143 117 q 143 94 154 79 q 171 56 208 40 q 246 25 300 25 q 380 25 419 55 q 458 84 458 118 q 458 156 418 179 q 378 202 302 209 q 226 217 192 230 q 159 243 141 268 q 122 293 122 323 q 122 375 174 406 q 226 438 297 438 q 382 438 436 396 z"},">":{"x_min":0,"x_max":600,"ha":600,"o":"m 552 285 l 109 38 q 98 32 93 32 q 84 32 78 38 q 72 44 72 52 q 72 64 89 74 l 469 285 l 89 496 q 73 505 73 517 q 73 525 79 531 q 85 538 93 538 q 99 538 109 532 z"},"l":{"x_min":0,"x_max":600,"ha":600,"o":"m 321 613 l 321 41 l 482 41 q 497 41 503 35 q 510 30 510 21 q 510 12 503 6 q 497 0 482 0 l 119 0 q 104 0 98 6 q 91 12 91 21 q 91 30 98 35 q 104 41 119 41 l 280 41 l 280 571 l 162 571 q 147 571 140 577 q 134 583 134 592 q 134 601 140 607 q 146 613 162 613 z"},"8":{"x_min":0,"x_max":600,"ha":600,"o":"m 384 318 q 436 293 462 252 q 488 211 488 165 q 488 92 433 39 q 378 -15 300 -15 q 222 -15 167 39 q 113 92 113 165 q 113 211 139 252 q 165 292 217 318 q 172 344 151 372 q 123 411 123 459 q 123 526 175 577 q 227 627 300 627 q 374 627 426 577 q 478 526 478 459 q 478 411 449 372 q 429 344 384 318 z m 436 458 q 436 510 396 548 q 357 586 300 586 q 243 586 204 548 q 165 510 165 458 q 165 410 203 374 q 242 338 300 338 q 358 338 397 374 q 436 410 436 458 z m 447 164 q 447 218 405 258 q 363 298 300 298 q 238 298 196 258 q 154 218 154 164 q 154 108 196 67 q 238 26 300 26 q 362 26 405 67 q 447 108 447 164 z"},"\\":{"x_min":0,"x_max":600,"ha":600,"o":"m 153 657 l 483 -50 q 488 -61 488 -65 q 488 -73 482 -79 q 476 -85 467 -85 q 454 -85 445 -67 l 116 640 q 111 650 111 656 q 111 664 117 669 q 123 675 131 675 q 145 675 153 657 z"},"e":{"x_min":0,"x_max":600,"ha":600,"o":"m 522 202 l 104 202 q 115 122 171 73 q 227 25 309 25 q 355 25 405 40 q 456 55 487 80 q 497 87 503 87 q 511 87 517 81 q 523 75 523 67 q 523 59 515 51 q 492 26 432 5 q 372 -16 309 -16 q 204 -16 133 53 q 62 122 62 220 q 62 310 129 374 q 195 438 292 438 q 393 438 458 372 q 523 306 522 202 z m 480 243 q 468 311 416 354 q 364 396 292 396 q 221 396 169 354 q 117 312 104 243 z"},"b":{"x_min":0,"x_max":600,"ha":600,"o":"m 146 613 l 146 341 q 220 438 325 438 q 415 438 479 372 q 542 307 542 212 q 542 117 478 50 q 413 -16 325 -16 q 217 -16 146 81 l 146 0 l 49 0 q 35 0 28 6 q 22 12 22 21 q 22 30 28 35 q 35 41 49 41 l 104 41 l 104 571 l 49 571 q 35 571 28 577 q 22 583 22 592 q 22 601 28 607 q 35 613 49 613 z m 501 210 q 501 288 448 342 q 395 396 324 396 q 252 396 199 342 q 146 288 146 210 q 146 133 199 79 q 252 25 324 25 q 395 25 448 79 q 501 133 501 210 z"},"%":{"x_min":0,"x_max":600,"ha":600,"o":"m 362 496 q 362 443 325 406 q 289 369 237 369 q 186 369 149 406 q 112 443 112 496 q 112 549 149 586 q 186 623 237 623 q 289 623 326 586 q 362 549 362 496 z m 333 496 q 333 537 305 565 q 277 593 237 593 q 198 593 170 565 q 142 537 142 496 q 142 456 170 427 q 198 399 237 399 q 277 399 305 427 q 333 456 333 496 z m 495 354 l 115 230 q 108 229 105 229 q 100 229 95 233 q 91 237 91 243 q 91 248 95 253 q 97 256 106 259 l 486 382 q 493 384 497 384 q 501 384 506 380 q 510 375 510 370 q 510 365 506 360 q 504 357 495 354 z m 489 115 q 489 62 452 25 q 415 -12 363 -12 q 312 -12 275 25 q 238 62 238 115 q 238 167 275 205 q 312 242 363 242 q 415 242 452 205 q 489 167 489 115 z m 459 115 q 459 156 431 184 q 403 212 363 212 q 324 212 296 184 q 268 155 268 115 q 268 75 296 46 q 324 18 363 18 q 403 18 431 46 q 459 74 459 115 z"},"m":{"x_min":0,"x_max":600,"ha":600,"o":"m 113 423 l 113 381 q 166 438 218 438 q 250 438 274 421 q 298 404 314 370 q 341 404 369 421 q 397 438 426 438 q 470 438 497 409 q 531 372 531 328 l 531 41 l 566 41 q 581 41 587 35 q 593 30 593 21 q 593 12 587 6 q 581 0 566 0 l 490 0 l 490 324 q 490 355 471 375 q 452 396 427 396 q 405 396 380 379 q 355 362 323 313 l 323 41 l 357 41 q 372 41 378 35 q 385 30 385 21 q 385 12 378 6 q 372 0 357 0 l 282 0 l 282 321 q 282 354 262 375 q 243 396 219 396 q 197 396 176 382 q 146 362 113 313 l 113 41 l 148 41 q 163 41 169 35 q 175 30 175 21 q 175 12 169 6 q 163 0 148 0 l 38 0 q 23 0 17 6 q 10 12 10 21 q 10 30 17 35 q 23 41 38 41 l 72 41 l 72 381 l 38 381 q 23 381 17 387 q 10 393 10 402 q 10 411 17 417 q 23 423 38 423 z"},"#":{"x_min":0,"x_max":600,"ha":600,"o":"m 391 361 l 382 232 l 460 232 q 475 232 481 227 q 488 221 488 212 q 488 203 481 197 q 475 191 460 191 l 379 191 l 363 -37 q 362 -52 356 -58 q 351 -63 342 -63 l 334 -62 q 322 -54 322 -42 l 322 -34 l 338 191 l 245 191 l 229 -37 q 229 -52 223 -58 q 217 -63 209 -63 l 200 -62 q 188 -54 188 -42 l 188 -34 l 204 191 l 119 191 q 104 191 98 197 q 91 203 91 212 q 91 221 98 227 q 104 232 119 232 l 207 232 l 216 361 l 140 361 q 125 361 118 367 q 112 373 112 382 q 112 391 118 397 q 125 402 140 402 l 219 402 l 235 631 q 236 645 242 651 q 248 657 255 657 l 264 655 q 276 647 276 636 l 276 628 l 260 402 l 353 402 l 369 631 q 370 645 375 651 q 381 657 389 657 l 397 655 q 410 647 410 636 l 410 628 l 394 402 l 481 402 q 496 402 502 397 q 508 391 508 382 q 508 373 502 367 q 496 361 481 361 z m 350 361 l 257 361 l 248 232 l 341 232 z"},",":{"x_min":0,"x_max":600,"ha":600,"o":"m 219 147 l 352 147 l 207 -122 q 194 -146 175 -146 q 163 -146 155 -138 q 146 -129 146 -117 q 146 -112 147 -106 z"},"n":{"x_min":0,"x_max":600,"ha":600,"o":"m 167 423 l 167 361 q 210 404 245 421 q 280 438 323 438 q 370 438 409 417 q 436 403 458 369 q 480 335 480 299 l 480 41 l 515 41 q 530 41 536 35 q 542 30 542 21 q 542 12 536 6 q 530 0 515 0 l 405 0 q 390 0 384 6 q 377 12 377 21 q 377 30 384 35 q 390 41 405 41 l 439 41 l 439 292 q 439 336 408 366 q 376 396 323 396 q 282 396 252 380 q 223 363 167 298 l 167 41 l 214 41 q 229 41 235 35 q 241 30 241 21 q 241 12 235 6 q 229 0 214 0 l 80 0 q 65 0 59 6 q 53 12 53 21 q 53 30 59 35 q 65 41 80 41 l 126 41 l 126 381 l 92 381 q 77 381 71 387 q 64 393 64 402 q 64 411 71 417 q 77 423 92 423 z"},"h":{"x_min":0,"x_max":600,"ha":600,"o":"m 165 613 l 165 360 q 204 403 240 420 q 276 438 320 438 q 368 438 402 421 q 435 404 458 369 q 480 334 480 295 l 480 41 l 526 41 q 541 41 547 35 q 553 30 553 21 q 553 12 547 6 q 541 0 526 0 l 393 0 q 377 0 371 6 q 365 12 365 21 q 365 30 371 35 q 377 41 393 41 l 438 41 l 438 292 q 438 337 406 367 q 375 396 317 396 q 272 396 241 375 q 218 359 165 301 l 165 41 l 211 41 q 226 41 232 35 q 239 30 239 21 q 239 12 232 6 q 226 0 211 0 l 78 0 q 63 0 57 6 q 50 12 50 21 q 50 30 57 35 q 63 41 78 41 l 124 41 l 124 571 l 69 571 q 54 571 48 577 q 42 583 42 592 q 42 601 48 607 q 54 613 69 613 z"},"z":{"x_min":0,"x_max":600,"ha":600,"o":"m 479 423 l 479 386 l 172 41 l 450 41 l 450 98 q 450 112 455 119 q 461 125 470 125 q 479 125 485 119 q 491 112 491 98 l 491 0 l 116 0 l 116 37 l 421 381 l 167 381 l 167 326 q 167 311 161 305 q 155 298 146 298 q 137 298 131 305 q 125 311 125 326 l 125 423 z"},"B":{"x_min":0,"x_max":600,"ha":600,"o":"m 125 41 l 125 530 l 70 530 q 55 530 49 536 q 42 542 42 551 q 42 560 49 566 q 55 571 70 571 l 328 571 q 404 571 452 527 q 500 483 500 423 q 500 348 420 302 q 484 279 514 241 q 543 203 543 157 q 543 116 524 82 q 504 48 464 24 q 424 0 376 0 l 70 0 q 55 0 49 6 q 42 12 42 21 q 42 30 49 35 q 55 41 70 41 z m 166 317 l 311 317 q 357 317 396 334 q 426 348 442 374 q 459 400 459 427 q 459 465 423 498 q 387 530 329 530 l 166 530 z m 166 41 l 374 41 q 413 41 442 59 q 472 76 487 102 q 502 128 502 156 q 502 187 480 216 q 458 246 420 261 q 381 276 313 276 l 166 276 z"},"K":{"x_min":0,"x_max":600,"ha":600,"o":"m 167 224 l 167 41 l 243 41 q 258 41 264 35 q 271 30 271 21 q 271 12 264 6 q 258 0 243 0 l 71 0 q 56 0 50 6 q 43 12 43 21 q 43 30 50 35 q 56 41 71 41 l 126 41 l 126 530 l 71 530 q 56 530 50 536 q 43 542 43 551 q 43 560 50 566 q 56 571 71 571 l 243 571 q 258 571 264 566 q 271 560 271 551 q 271 542 264 536 q 258 530 243 530 l 167 530 l 167 278 l 450 530 l 405 530 q 390 530 384 536 q 377 542 377 551 q 377 560 384 566 q 390 571 405 571 l 526 571 q 541 571 547 566 q 553 560 553 551 q 553 542 547 536 q 541 530 526 530 l 509 530 l 284 329 q 334 308 367 277 q 400 247 431 190 q 449 158 496 41 l 547 41 q 562 41 568 35 q 575 30 575 21 q 575 12 568 6 q 562 0 547 0 l 468 0 q 403 176 359 227 q 315 277 250 298 z"},"R":{"x_min":0,"x_max":600,"ha":600,"o":"m 167 255 l 167 41 l 242 41 q 257 41 264 35 q 270 30 270 21 q 270 12 264 6 q 257 0 242 0 l 70 0 q 56 0 49 6 q 43 12 43 21 q 43 30 49 35 q 56 41 70 41 l 125 41 l 125 530 l 70 530 q 56 530 49 536 q 43 542 43 551 q 43 560 49 566 q 56 571 70 571 l 318 571 q 395 571 448 523 q 500 474 500 413 q 500 369 468 330 q 435 292 359 266 q 403 235 434 197 q 465 159 534 41 l 565 41 q 580 41 586 35 q 593 30 593 21 q 593 12 586 6 q 580 0 565 0 l 511 0 q 435 136 393 183 q 351 229 297 255 z m 167 296 l 278 296 q 332 296 376 315 q 419 335 439 361 q 459 388 459 415 q 459 456 418 493 q 376 530 317 530 l 167 530 z"},"T":{"x_min":0,"x_max":600,"ha":600,"o":"m 320 530 l 320 41 l 427 41 q 441 41 448 35 q 454 30 454 21 q 454 12 448 6 q 441 0 427 0 l 172 0 q 158 0 151 6 q 145 12 145 21 q 145 30 151 35 q 158 41 172 41 l 279 41 l 279 530 l 111 530 l 111 388 q 111 373 105 367 q 100 360 90 360 q 82 360 76 367 q 70 373 70 388 l 70 571 l 529 571 l 529 388 q 529 373 524 367 q 518 360 509 360 q 500 360 494 367 q 488 373 488 388 l 488 530 z"},"P":{"x_min":0,"x_max":600,"ha":600,"o":"m 211 234 l 211 41 l 352 41 q 366 41 373 35 q 379 30 379 21 q 379 12 373 6 q 366 0 352 0 l 115 0 q 100 0 94 6 q 87 12 87 21 q 87 30 94 35 q 100 41 115 41 l 170 41 l 170 530 l 115 530 q 100 530 94 536 q 87 542 87 551 q 87 560 94 566 q 100 571 115 571 l 353 571 q 438 571 491 521 q 544 472 544 405 q 544 365 527 333 q 510 302 485 284 q 449 256 410 244 q 381 234 339 234 z m 211 275 l 342 275 q 387 275 427 296 q 467 316 485 345 q 503 375 503 405 q 503 453 462 492 q 420 530 357 530 l 211 530 z"},"|":{"x_min":0,"x_max":600,"ha":600,"o":"m 321 585 l 320 -99 q 320 -114 315 -120 q 309 -126 300 -126 q 291 -126 285 -120 q 279 -114 279 -99 l 279 585 q 279 600 285 606 q 291 613 300 613 q 309 613 315 606 q 321 600 321 585 z"},"t":{"x_min":0,"x_max":600,"ha":600,"o":"m 216 423 l 438 423 q 453 423 459 417 q 466 411 466 402 q 466 393 459 387 q 453 381 438 381 l 216 381 l 216 108 q 216 73 244 49 q 273 25 328 25 q 370 25 418 37 q 466 50 493 65 q 503 72 509 72 q 517 72 523 66 q 529 60 529 51 q 529 44 522 38 q 507 21 447 3 q 386 -16 331 -16 q 259 -16 217 18 q 174 51 174 108 l 174 381 l 99 381 q 84 381 78 387 q 71 393 71 402 q 71 411 78 417 q 84 423 99 423 l 174 423 l 174 544 q 174 559 180 565 q 186 571 195 571 q 204 571 210 565 q 216 559 216 544 z"},"M":{"x_min":0,"x_max":600,"ha":600,"o":"m 327 171 l 280 171 l 123 530 l 115 530 l 115 41 l 190 41 q 205 41 211 35 q 218 30 218 21 q 218 12 211 6 q 205 0 190 0 l 39 0 q 24 0 18 6 q 12 12 12 21 q 12 30 18 35 q 24 41 39 41 l 74 41 l 74 530 l 48 530 q 33 530 27 536 q 21 542 21 551 q 21 560 27 566 q 33 571 48 571 l 148 571 l 304 218 l 457 571 l 557 571 q 572 571 579 566 q 585 560 585 551 q 585 542 579 536 q 572 530 557 530 l 532 530 l 532 41 l 566 41 q 581 41 587 35 q 594 30 594 21 q 594 12 587 6 q 581 0 566 0 l 415 0 q 400 0 394 6 q 387 12 387 21 q 387 30 394 35 q 400 41 415 41 l 491 41 l 491 530 l 482 530 z"},"g":{"x_min":0,"x_max":600,"ha":600,"o":"m 438 348 l 438 423 l 534 423 q 549 423 555 417 q 562 411 562 402 q 562 393 555 387 q 549 381 534 381 l 479 381 l 479 -28 q 479 -69 461 -102 q 450 -123 422 -146 q 395 -169 373 -179 q 350 -188 312 -188 l 196 -188 q 182 -188 175 -183 q 169 -177 169 -168 q 169 -159 175 -153 q 182 -147 196 -147 l 314 -147 q 350 -147 379 -129 q 408 -110 427 -75 q 438 -54 438 -22 l 438 101 q 372 10 268 10 q 184 10 122 73 q 61 136 61 224 q 61 312 122 375 q 184 438 268 438 q 372 438 438 348 z m 438 224 q 438 296 388 346 q 339 396 270 396 q 201 396 152 346 q 103 296 103 224 q 103 152 152 102 q 201 52 270 52 q 339 52 388 102 q 438 152 438 224 z"},"j":{"x_min":0,"x_max":600,"ha":600,"o":"m 359 633 l 359 527 l 298 527 l 298 633 z m 361 381 l 118 381 q 103 381 97 387 q 90 393 90 402 q 90 411 96 417 q 103 423 118 423 l 402 423 l 402 -29 q 402 -81 381 -116 q 359 -151 316 -173 q 287 -188 246 -188 l 115 -188 q 101 -188 94 -183 q 88 -177 88 -168 q 88 -159 94 -153 q 101 -147 115 -147 l 245 -147 q 297 -147 329 -113 q 361 -79 361 -29 z"},"i":{"x_min":0,"x_max":600,"ha":600,"o":"m 320 633 l 320 527 l 260 527 l 260 633 z m 322 423 l 322 41 l 483 41 q 498 41 504 35 q 511 30 511 21 q 511 12 504 6 q 498 0 483 0 l 120 0 q 105 0 99 6 q 92 12 92 21 q 92 30 99 35 q 105 41 120 41 l 281 41 l 281 381 l 161 381 q 146 381 140 387 q 133 393 133 402 q 133 411 140 417 q 146 423 161 423 z"},"y":{"x_min":0,"x_max":600,"ha":600,"o":"m 303 0 l 112 381 l 100 381 q 85 381 79 387 q 73 393 73 402 q 73 408 76 413 q 79 418 84 421 q 89 423 100 423 l 212 423 q 227 423 233 417 q 240 411 240 402 q 240 393 233 387 q 227 381 212 381 l 157 381 l 325 45 l 490 381 l 435 381 q 420 381 414 387 q 407 393 407 402 q 407 411 414 417 q 420 423 435 423 l 546 423 q 562 423 568 417 q 574 411 574 402 q 574 396 570 390 q 566 385 562 383 q 557 381 534 381 l 274 -147 l 338 -147 q 353 -147 359 -153 q 366 -159 366 -168 q 366 -177 359 -183 q 353 -188 338 -188 l 102 -188 q 87 -188 81 -183 q 75 -177 75 -168 q 75 -159 81 -153 q 87 -147 102 -147 l 230 -147 z"},"@":{"x_min":0,"x_max":600,"ha":600,"o":"m 419 147 l 419 153 q 407 151 397 150 q 387 149 378 149 q 318 149 280 186 q 241 223 241 276 q 241 336 289 379 q 336 422 419 422 l 419 470 q 419 523 386 558 q 353 592 303 592 q 269 592 238 574 q 217 562 203 544 q 180 514 163 470 q 146 427 146 363 l 146 202 q 146 107 190 42 q 233 -22 308 -22 q 381 -22 417 12 q 426 20 434 20 q 442 20 448 14 q 454 8 454 0 q 454 -15 424 -34 q 377 -63 302 -63 q 263 -63 230 -49 q 198 -35 176 -9 q 162 6 143 42 q 124 79 116 107 q 105 147 105 202 l 105 366 q 105 491 171 570 q 224 633 301 633 q 341 633 375 616 q 409 600 435 560 q 460 521 460 470 l 460 188 q 470 188 475 182 q 480 177 480 168 q 480 162 477 157 q 474 152 469 150 q 464 147 453 147 z m 419 382 q 355 381 319 350 q 282 318 282 277 q 282 240 309 215 q 335 190 383 190 q 392 190 401 191 q 410 192 419 194 z"},".":{"x_min":0,"x_max":600,"ha":600,"o":"m 292 118 l 309 118 q 336 118 356 98 q 375 79 375 52 q 375 23 356 4 q 336 -15 309 -15 l 292 -15 q 264 -15 245 5 q 225 24 225 51 q 225 80 245 99 q 265 118 292 118 z"},"p":{"x_min":0,"x_max":600,"ha":600,"o":"m 146 423 l 146 348 q 182 393 224 415 q 266 438 323 438 q 384 438 435 409 q 486 381 514 330 q 542 280 542 224 q 542 136 479 73 q 416 10 324 10 q 214 10 146 100 l 146 -147 l 245 -147 q 260 -147 266 -153 q 272 -159 272 -168 q 272 -177 266 -183 q 260 -188 245 -188 l 49 -188 q 35 -188 28 -183 q 22 -177 22 -168 q 22 -159 28 -153 q 35 -147 49 -147 l 104 -147 l 104 381 l 49 381 q 35 381 28 387 q 22 393 22 402 q 22 411 28 417 q 35 423 49 423 z m 501 224 q 501 295 449 345 q 398 396 324 396 q 249 396 197 345 q 146 294 146 224 q 146 153 197 103 q 249 52 324 52 q 397 52 449 102 q 501 153 501 224 z"},"X":{"x_min":0,"x_max":600,"ha":600,"o":"m 325 292 l 520 41 l 535 41 q 550 41 556 35 q 562 30 562 21 q 562 12 556 6 q 550 0 535 0 l 403 0 q 389 0 382 6 q 376 12 376 21 q 376 30 382 35 q 389 41 403 41 l 469 41 l 299 259 l 132 41 l 197 41 q 212 41 218 35 q 225 30 225 21 q 225 12 218 6 q 212 0 197 0 l 66 0 q 52 0 45 6 q 39 12 39 21 q 39 27 43 33 q 47 38 52 40 q 57 41 82 41 l 274 292 l 90 530 l 75 530 q 61 530 54 536 q 48 542 48 551 q 48 560 54 566 q 61 571 75 571 l 187 571 q 202 571 208 566 q 215 560 215 551 q 215 542 208 536 q 202 530 187 530 l 141 530 l 299 326 l 457 530 l 411 530 q 396 530 389 536 q 383 542 383 551 q 383 560 389 566 q 396 571 411 571 l 523 571 q 538 571 544 566 q 550 560 550 551 q 550 542 544 536 q 538 530 523 530 l 507 530 z"},"*":{"x_min":0,"x_max":600,"ha":600,"o":"m 277 445 l 277 585 q 277 600 283 606 q 289 613 298 613 q 307 613 313 606 q 319 600 319 585 l 319 445 l 452 488 q 461 491 466 491 q 474 491 480 485 q 486 479 486 471 q 486 463 482 458 q 478 453 465 449 l 332 405 l 414 292 q 422 281 422 274 q 422 266 416 260 q 410 253 401 253 q 391 253 380 268 l 298 381 l 215 268 q 205 253 195 253 q 186 253 180 260 q 174 266 174 274 q 174 281 182 292 l 265 405 l 131 449 q 119 453 115 458 q 110 463 110 471 q 110 479 116 485 q 122 491 129 491 q 135 491 144 488 z"},"Y":{"x_min":0,"x_max":600,"ha":600,"o":"m 322 258 l 322 41 l 428 41 q 443 41 449 35 q 456 30 456 21 q 456 12 449 6 q 443 0 428 0 l 174 0 q 159 0 153 6 q 146 12 146 21 q 146 30 153 35 q 159 41 174 41 l 280 41 l 280 258 l 100 530 l 76 530 q 61 530 55 536 q 48 542 48 551 q 48 560 55 566 q 61 571 76 571 l 188 571 q 203 571 209 566 q 216 560 216 551 q 216 542 209 536 q 203 530 188 530 l 148 530 l 301 299 l 451 530 l 411 530 q 396 530 390 536 q 383 542 383 551 q 383 560 390 566 q 396 571 411 571 l 523 571 q 538 571 544 566 q 551 560 551 551 q 551 542 544 536 q 538 530 523 530 l 499 530 z"},"c":{"x_min":0,"x_max":600,"ha":600,"o":"m 471 381 l 471 395 q 471 410 477 417 q 483 423 492 423 q 501 423 507 417 q 513 410 513 395 l 513 302 q 512 287 507 281 q 501 274 492 274 q 483 274 478 280 q 472 286 471 299 q 468 333 426 365 q 383 396 311 396 q 219 396 172 339 q 125 282 125 208 q 125 128 177 77 q 229 25 312 25 q 360 25 409 42 q 459 60 499 99 q 509 109 517 109 q 525 109 531 103 q 537 98 537 89 q 537 68 487 36 q 408 -16 310 -16 q 211 -16 147 47 q 83 110 83 208 q 83 307 149 372 q 214 438 313 438 q 407 438 471 381 z"},"!":{"x_min":0,"x_max":600,"ha":600,"o":"m 339 571 l 321 240 q 320 225 314 218 q 309 212 300 212 q 292 212 286 218 q 280 225 279 240 l 261 571 q 260 583 260 588 q 260 605 272 616 q 283 627 300 627 q 317 627 329 616 q 340 605 340 588 q 340 583 339 571 z m 291 87 l 310 87 q 331 87 345 72 q 360 57 360 36 q 360 15 345 0 q 330 -15 310 -15 l 291 -15 q 270 -15 255 0 q 240 15 240 36 q 240 58 255 72 q 270 87 291 87 z"},"/":{"x_min":0,"x_max":600,"ha":600,"o":"m 484 643 l 154 -64 q 146 -83 133 -83 q 125 -83 118 -76 q 112 -70 112 -63 q 112 -57 117 -47 l 447 660 q 452 671 457 675 q 462 678 469 678 q 477 678 483 672 q 489 666 489 659 q 489 653 484 643 z"},"[":{"x_min":0,"x_max":600,"ha":600,"o":"m 321 571 l 321 -85 l 420 -85 q 435 -85 441 -91 q 448 -97 448 -106 q 448 -115 441 -121 q 435 -126 420 -126 l 280 -126 l 280 613 l 420 613 q 435 613 441 607 q 448 601 448 592 q 448 583 441 577 q 435 571 420 571 z"},"6":{"x_min":0,"x_max":600,"ha":600,"o":"m 178 259 q 216 315 256 342 q 296 369 346 369 q 411 369 462 315 q 513 260 513 180 q 513 107 466 46 q 420 -15 338 -15 q 285 -15 239 18 q 193 51 167 119 q 134 203 134 306 q 134 383 165 449 q 188 500 227 539 q 266 578 318 603 q 370 627 431 627 q 472 627 499 611 q 511 604 511 591 q 511 583 505 577 q 500 571 492 571 q 485 571 477 576 q 457 586 427 586 q 332 586 253 504 q 175 422 175 310 q 175 293 178 259 z m 187 191 q 206 103 245 64 q 285 26 339 26 q 394 26 433 69 q 472 112 472 180 q 472 244 433 286 q 394 328 344 328 q 297 328 253 288 q 224 261 187 191 z"},"r":{"x_min":0,"x_max":600,"ha":600,"o":"m 251 423 l 251 319 q 331 392 371 412 q 411 433 444 433 q 481 433 512 408 q 544 384 544 371 q 544 362 538 356 q 532 350 522 350 q 518 350 514 351 q 511 353 501 362 q 484 379 472 386 q 459 392 447 392 q 420 392 382 371 q 344 349 251 266 l 251 41 l 433 41 q 448 41 454 35 q 460 30 460 21 q 460 12 454 6 q 448 0 433 0 l 111 0 q 96 0 90 6 q 83 11 83 20 q 83 28 90 34 q 96 40 111 40 l 210 40 l 210 381 l 134 381 q 120 381 113 387 q 107 393 107 402 q 107 411 113 417 q 119 423 134 423 z"},"2":{"x_min":0,"x_max":600,"ha":600,"o":"m 124 41 l 438 41 l 438 57 q 438 72 444 78 q 450 84 459 84 q 468 84 474 78 q 480 72 480 57 l 480 0 l 83 0 l 83 61 q 208 173 327 289 q 382 343 402 369 q 423 394 430 413 q 438 433 438 452 q 438 505 396 545 q 353 586 293 586 q 239 586 198 555 q 156 524 144 479 q 141 467 137 464 q 131 459 123 459 q 115 459 109 465 q 104 470 104 478 q 104 501 129 542 q 155 582 200 604 q 245 627 292 627 q 369 627 424 574 q 479 521 479 454 q 479 425 470 402 q 461 378 439 350 q 417 322 359 265 q 214 123 124 44 z"},"{":{"x_min":0,"x_max":600,"ha":600,"o":"m 276 243 q 301 225 310 208 q 321 186 321 156 l 321 -20 q 321 -47 337 -65 q 353 -83 377 -85 q 392 -87 397 -91 q 403 -97 403 -106 q 403 -115 397 -121 q 391 -126 378 -126 q 340 -126 314 -102 q 279 -68 279 -20 l 279 156 q 279 183 263 201 q 247 219 222 221 q 208 223 203 228 q 198 233 198 243 q 198 252 203 258 q 208 263 222 265 q 248 267 263 285 q 279 303 279 330 l 279 506 q 279 552 309 582 q 338 613 379 613 q 391 613 397 607 q 403 601 403 592 q 403 583 397 578 q 393 573 377 571 q 353 569 337 551 q 321 533 321 506 l 321 330 q 321 299 311 281 q 301 262 276 243 z"},"9":{"x_min":0,"x_max":600,"ha":600,"o":"m 468 347 q 437 291 393 262 q 349 234 303 234 q 261 234 221 258 q 181 283 158 330 q 134 377 134 429 q 134 504 181 566 q 228 627 306 627 q 361 627 407 593 q 453 558 479 492 q 511 408 511 296 q 511 209 483 151 q 465 112 429 76 q 393 39 348 16 q 287 -15 220 -15 q 176 -15 148 2 q 136 10 136 21 q 136 30 142 35 q 147 41 156 41 q 162 41 173 36 q 192 26 217 26 q 321 26 396 101 q 470 176 470 289 q 470 310 468 347 z m 460 415 q 435 514 396 550 q 358 586 307 586 q 254 586 215 542 q 175 498 175 429 q 175 362 215 319 q 254 275 304 275 q 333 275 361 291 q 389 306 414 337 q 430 358 460 415 z"}," ":{"x_min":0,"x_max":600,"ha":600,"o":""},"I":{"x_min":0,"x_max":600,"ha":600,"o":"m 321 530 l 321 41 l 461 41 q 476 41 482 35 q 489 30 489 21 q 489 12 482 6 q 476 0 461 0 l 139 0 q 125 0 118 6 q 112 12 112 21 q 112 30 118 35 q 125 41 139 41 l 280 41 l 280 530 l 139 530 q 125 530 118 536 q 112 542 112 551 q 112 560 118 566 q 125 571 139 571 l 461 571 q 476 571 482 566 q 489 560 489 551 q 489 542 482 536 q 476 530 461 530 z"},"H":{"x_min":0,"x_max":600,"ha":600,"o":"m 439 276 l 167 276 l 167 41 l 222 41 q 237 41 243 35 q 250 30 250 21 q 250 12 243 6 q 237 0 222 0 l 80 0 q 65 0 59 6 q 52 12 52 21 q 52 30 59 35 q 65 41 80 41 l 126 41 l 126 530 l 101 530 q 85 530 79 536 q 73 542 73 551 q 73 560 79 566 q 85 571 101 571 l 222 571 q 237 571 243 566 q 250 560 250 551 q 250 542 243 536 q 237 530 222 530 l 167 530 l 167 317 l 439 317 l 439 530 l 384 530 q 370 530 363 536 q 357 542 357 551 q 357 560 363 566 q 369 571 384 571 l 506 571 q 521 571 527 566 q 534 560 534 551 q 534 542 527 536 q 521 530 506 530 l 480 530 l 480 41 l 527 41 q 542 41 548 35 q 554 30 554 21 q 554 12 548 6 q 542 0 527 0 l 384 0 q 370 0 363 6 q 357 12 357 21 q 357 30 363 35 q 369 41 384 41 l 439 41 z"},"4":{"x_min":0,"x_max":600,"ha":600,"o":"m 376 171 l 104 171 l 104 219 l 333 613 l 418 613 l 418 212 l 452 212 q 467 212 474 207 q 480 201 480 192 q 480 183 474 177 q 467 171 452 171 l 418 171 l 418 41 l 452 41 q 467 41 474 35 q 480 30 480 21 q 480 12 474 6 q 467 0 452 0 l 300 0 q 285 0 278 6 q 272 12 272 21 q 272 30 278 35 q 285 41 300 41 l 376 41 z m 376 212 l 376 571 l 355 571 l 147 212 z"},"~":{"x_min":0,"x_max":600,"ha":600,"o":"m 490 326 q 498 326 503 320 q 509 314 509 307 q 509 290 467 250 q 424 211 389 211 q 367 211 344 223 q 322 236 280 275 q 252 301 238 310 q 224 318 212 318 q 198 318 185 310 q 168 300 138 266 q 124 250 120 247 q 116 245 111 245 q 103 245 97 250 q 91 256 91 264 q 91 272 104 288 q 136 328 162 344 q 187 359 211 359 q 231 359 250 349 q 270 340 301 312 q 350 267 362 260 q 374 252 386 252 q 420 252 459 302 q 474 320 479 323 q 483 326 490 326 z"},"D":{"x_min":0,"x_max":600,"ha":600,"o":"m 139 41 l 139 530 l 104 530 q 90 530 83 536 q 77 542 77 551 q 77 560 83 566 q 90 571 104 571 l 325 571 q 377 571 420 550 q 462 528 485 501 q 523 455 543 403 q 558 365 558 314 l 558 257 q 558 194 530 135 q 502 76 437 32 q 389 0 325 0 l 104 0 q 90 0 83 6 q 77 12 77 21 q 77 30 83 35 q 90 41 104 41 z m 180 41 l 329 41 q 381 41 426 75 q 471 108 494 156 q 517 203 517 249 l 517 323 q 517 361 504 391 q 487 434 455 473 q 437 495 403 512 q 369 530 329 530 l 180 530 z"},"^":{"x_min":0,"x_max":600,"ha":600,"o":"m 300 625 l 480 398 q 489 387 489 380 q 489 372 483 366 q 477 360 468 360 q 458 360 447 373 l 300 560 l 152 373 q 142 359 132 359 q 124 359 117 365 q 111 372 111 380 q 111 387 120 398 z"},"0":{"x_min":0,"x_max":600,"ha":600,"o":"m 488 357 l 488 255 q 488 123 425 46 q 376 -15 301 -15 q 265 -15 233 0 q 201 14 178 40 q 164 56 147 92 q 130 127 123 157 q 112 199 112 255 l 112 357 q 112 490 175 567 q 224 627 299 627 q 336 627 368 613 q 399 599 422 573 q 437 556 453 521 q 470 485 478 456 q 488 414 488 357 z m 447 352 q 447 410 431 460 q 415 510 394 540 q 382 557 362 569 q 334 586 300 586 q 231 586 192 516 q 153 445 153 352 l 153 261 q 153 203 169 153 q 186 103 207 73 q 218 56 238 44 q 266 26 301 26 q 369 26 408 97 q 447 167 447 261 z"},"F":{"x_min":0,"x_max":600,"ha":600,"o":"m 201 276 l 201 41 l 342 41 q 356 41 363 35 q 369 30 369 21 q 369 12 363 6 q 356 0 342 0 l 105 0 q 90 0 84 6 q 78 12 78 21 q 78 30 84 35 q 90 41 105 41 l 160 41 l 160 530 l 105 530 q 90 530 84 536 q 78 542 78 551 q 78 560 85 566 q 90 571 105 571 l 557 571 l 557 430 q 557 416 551 409 q 545 403 536 403 q 527 403 521 409 q 515 416 515 430 l 515 530 l 201 530 l 201 317 l 348 317 l 348 363 q 348 378 354 384 q 360 391 369 391 q 378 391 384 384 q 390 378 390 363 l 390 229 q 390 215 384 208 q 378 202 369 202 q 360 202 354 208 q 348 215 348 229 l 348 276 z"},"`":{"x_min":0,"x_max":600,"ha":600,"o":"m 256 639 l 372 540 l 382 527 q 384 525 384 520 q 384 511 378 505 q 372 499 363 499 q 355 499 344 508 l 229 608 q 217 619 217 628 q 217 637 223 643 q 229 649 238 649 q 245 649 256 639 z"},"k":{"x_min":0,"x_max":600,"ha":600,"o":"m 217 183 l 217 0 l 121 0 q 106 0 100 6 q 93 12 93 21 q 93 30 100 35 q 106 41 121 41 l 176 41 l 176 571 l 121 571 q 106 571 100 577 q 93 583 93 592 q 93 601 100 607 q 106 613 121 613 l 217 613 l 217 235 l 391 381 l 370 381 q 355 381 349 387 q 343 393 343 402 q 343 411 349 417 q 355 423 370 423 l 501 423 q 517 423 523 417 q 529 411 529 402 q 529 393 523 387 q 517 381 501 381 l 454 381 l 294 248 l 497 41 l 544 41 q 559 41 565 35 q 572 30 572 21 q 572 12 565 6 q 559 0 544 0 l 411 0 q 396 0 390 6 q 384 12 384 21 q 384 30 390 35 q 396 41 411 41 l 440 41 l 264 222 z"},"u":{"x_min":0,"x_max":600,"ha":600,"o":"m 440 0 l 440 60 q 356 -16 259 -16 q 199 -16 167 17 q 127 60 127 117 l 127 381 l 72 381 q 57 381 51 387 q 44 393 44 402 q 44 411 51 417 q 57 423 72 423 l 168 423 l 168 117 q 168 77 193 51 q 219 25 257 25 q 357 25 440 117 l 440 381 l 365 381 q 350 381 344 387 q 337 393 337 402 q 337 411 344 417 q 350 423 365 423 l 481 423 l 481 41 l 516 41 q 531 41 537 35 q 543 30 543 21 q 543 12 537 6 q 531 0 516 0 z"},"]":{"x_min":0,"x_max":600,"ha":600,"o":"m 281 -85 l 281 571 l 182 571 q 167 571 161 577 q 154 583 154 592 q 154 601 161 607 q 167 613 182 613 l 322 613 l 322 -126 l 182 -126 q 167 -126 161 -121 q 154 -115 154 -106 q 154 -97 161 -91 q 167 -85 182 -85 z"},"U":{"x_min":0,"x_max":600,"ha":600,"o":"m 499 530 l 499 188 q 499 101 441 42 q 383 -16 302 -16 q 247 -16 205 8 q 162 32 132 80 q 103 129 103 188 l 103 530 l 68 530 q 53 530 47 536 q 41 542 41 551 q 41 560 47 566 q 53 571 68 571 l 219 571 q 234 571 240 566 q 247 560 247 551 q 247 542 240 536 q 234 530 219 530 l 144 530 l 144 188 q 144 120 190 72 q 236 25 300 25 q 340 25 374 43 q 407 62 432 101 q 458 139 458 188 l 458 530 l 382 530 q 367 530 361 536 q 354 542 354 551 q 354 560 361 566 q 367 571 382 571 l 533 571 q 548 571 554 566 q 561 560 561 551 q 561 542 554 536 q 548 530 533 530 z"},"o":{"x_min":0,"x_max":600,"ha":600,"o":"m 529 210 q 529 117 462 50 q 395 -16 300 -16 q 205 -16 138 51 q 71 117 71 210 q 71 304 138 371 q 205 438 300 438 q 395 438 462 371 q 529 305 529 210 z m 488 210 q 488 288 433 342 q 378 396 300 396 q 222 396 167 342 q 112 287 112 210 q 112 134 167 80 q 222 25 300 25 q 378 25 433 79 q 488 134 488 210 z"},"N":{"x_min":0,"x_max":600,"ha":600,"o":"m 501 0 l 448 0 l 146 511 l 146 41 l 222 41 q 237 41 243 35 q 250 30 250 21 q 250 12 243 6 q 237 0 222 0 l 71 0 q 56 0 49 6 q 43 12 43 21 q 43 30 49 35 q 56 41 71 41 l 105 41 l 105 530 l 50 530 q 35 530 29 536 q 22 542 22 551 q 22 560 29 566 q 35 571 50 571 l 157 571 l 460 59 l 460 530 l 384 530 q 370 530 363 536 q 357 542 357 551 q 357 560 363 566 q 369 571 384 571 l 536 571 q 550 571 557 566 q 563 560 563 551 q 563 542 557 536 q 550 530 536 530 l 501 530 z"},"+":{"x_min":0,"x_max":600,"ha":600,"o":"m 321 265 l 321 60 q 321 45 315 39 q 309 33 300 33 q 291 33 285 39 q 279 45 279 60 l 279 265 l 98 265 q 83 265 77 271 q 70 276 70 286 q 70 295 77 301 q 83 306 98 306 l 279 306 l 279 510 q 279 525 285 531 q 291 538 300 538 q 309 538 315 531 q 321 525 321 510 l 321 306 l 502 306 q 517 306 523 301 q 530 295 530 286 q 530 276 523 271 q 517 265 502 265 z"},"G":{"x_min":0,"x_max":600,"ha":600,"o":"m 523 212 l 523 36 q 476 10 429 -3 q 383 -16 336 -16 q 271 -16 220 3 q 170 23 136 58 q 101 93 82 137 q 62 180 62 247 l 62 322 q 62 390 96 453 q 129 517 188 551 q 246 584 314 584 q 413 584 481 530 q 481 554 483 559 q 485 564 490 568 q 496 571 502 571 q 511 571 517 565 q 523 559 523 544 l 523 451 q 523 436 517 430 q 511 424 502 424 q 494 424 489 429 q 483 435 482 449 q 479 491 428 517 q 377 543 317 543 q 261 543 215 519 q 169 494 130 425 q 104 379 104 322 l 104 247 q 104 145 166 85 q 229 25 338 25 q 375 25 407 33 q 439 41 481 60 l 481 212 l 340 212 q 326 212 319 218 q 313 223 313 232 q 313 242 319 248 q 326 253 340 253 l 538 253 q 552 253 559 247 q 565 242 565 232 q 565 226 561 221 q 557 215 552 214 q 547 212 523 212 z"},"q":{"x_min":0,"x_max":600,"ha":600,"o":"m 459 348 l 459 423 l 555 423 q 570 423 577 417 q 583 411 583 402 q 583 393 577 387 q 570 381 555 381 l 500 381 l 500 -147 l 555 -147 q 570 -147 577 -153 q 583 -159 583 -168 q 583 -177 577 -183 q 570 -188 555 -188 l 360 -188 q 345 -188 339 -183 q 333 -177 333 -168 q 333 -159 339 -153 q 345 -147 360 -147 l 459 -147 l 459 100 q 391 10 281 10 q 189 10 126 73 q 62 136 62 224 q 62 313 126 375 q 189 438 282 438 q 391 438 459 348 z m 459 224 q 459 295 407 345 q 355 396 281 396 q 207 396 155 345 q 104 295 104 224 q 104 153 155 103 q 207 52 281 52 q 355 52 407 103 q 459 153 459 224 z"},"d":{"x_min":0,"x_max":600,"ha":600,"o":"m 501 613 l 501 41 l 556 41 q 571 41 577 35 q 583 30 583 21 q 583 12 577 6 q 571 0 556 0 l 459 0 l 459 82 q 388 -16 278 -16 q 223 -16 172 13 q 121 43 91 98 q 62 152 62 210 q 62 269 91 323 q 121 378 172 408 q 223 438 279 438 q 386 438 459 340 l 459 571 l 405 571 q 390 571 383 577 q 377 583 377 592 q 377 601 383 607 q 390 613 405 613 z m 459 210 q 459 289 407 342 q 354 396 281 396 q 208 396 155 342 q 103 289 103 210 q 103 133 155 79 q 208 25 281 25 q 354 25 407 79 q 459 133 459 210 z"},"1":{"x_min":0,"x_max":600,"ha":600,"o":"m 320 621 l 320 41 l 461 41 q 476 41 482 35 q 488 30 488 21 q 488 12 482 6 q 476 0 461 0 l 139 0 q 124 0 118 6 q 111 12 111 21 q 111 30 118 35 q 124 41 139 41 l 279 41 l 279 564 l 146 522 q 136 520 131 520 q 124 520 118 526 q 112 532 112 540 q 112 547 117 554 q 121 558 133 562 z"},"5":{"x_min":0,"x_max":600,"ha":600,"o":"m 187 571 l 187 371 q 223 386 256 393 q 290 401 319 401 q 396 401 448 347 q 500 292 500 204 q 500 106 442 46 q 383 -15 295 -15 q 237 -15 184 11 q 146 29 114 56 q 96 72 96 83 q 96 92 102 98 q 107 104 115 104 q 124 104 133 95 q 207 26 293 26 q 365 26 412 75 q 459 125 459 206 q 459 275 418 318 q 378 360 315 360 q 251 360 188 326 q 172 318 166 318 q 157 318 151 324 q 146 330 146 341 l 146 613 l 432 613 q 447 613 453 607 q 459 601 459 592 q 459 583 453 577 q 447 571 432 571 z"}}}
